<svg width="254" height="22" viewBox="0 0 254 22" fill="none" xmlns="http://www.w3.org/2000/svg">
<path fill-rule="evenodd" clip-rule="evenodd" d="M10.2913 21.8926L5.28573 9.08071V0L11.6855 14.7813H11.9409L17.9433 0H23.6264V22H19.1565V7.68066H18.9756L13.3351 21.8926H10.2913Z" fill="black"/>
<path d="M4.34919 22V7.62695V0H0V22H4.34919Z" fill="black"/>
<path fill-rule="evenodd" clip-rule="evenodd" d="M29.6649 21.8926L24.6593 9.08071V0L31.0591 14.7813H31.3145L37.3169 0H43V22H38.5301V7.68066H38.3492L32.7087 21.8926H29.6649Z" fill="black"/>
<path d="M52.9091 1.61364V20.75H52.0284V1.61364H52.9091ZM60.983 5.36364H62.2102L66.4318 15.5H66.5341L70.7557 5.36364H71.983V17H70.983V7.60795H70.892L66.9659 17H66L62.0739 7.60795H61.983V17H60.983V5.36364ZM77.304 17.1989C76.7775 17.1989 76.2964 17.0966 75.8608 16.892C75.4252 16.6837 75.0786 16.3845 74.821 15.9943C74.5634 15.6004 74.4347 15.1231 74.4347 14.5625C74.4347 14.1307 74.5161 13.767 74.679 13.4716C74.8419 13.1761 75.0729 12.9337 75.3722 12.7443C75.6714 12.5549 76.0256 12.4053 76.4347 12.2955C76.8438 12.1856 77.2945 12.1004 77.7869 12.0398C78.2756 11.9792 78.6884 11.9261 79.0256 11.8807C79.3665 11.8352 79.6259 11.7633 79.804 11.6648C79.982 11.5663 80.071 11.4072 80.071 11.1875V10.983C80.071 10.3883 79.893 9.92045 79.5369 9.57955C79.1847 9.23485 78.6771 9.0625 78.0142 9.0625C77.3854 9.0625 76.8722 9.20076 76.4744 9.47727C76.0805 9.75379 75.804 10.0795 75.6449 10.4545L74.6847 10.108C74.8816 9.63068 75.1544 9.25 75.5028 8.96591C75.8513 8.67803 76.2415 8.47159 76.6733 8.34659C77.1051 8.2178 77.5426 8.15341 77.9858 8.15341C78.3191 8.15341 78.6657 8.19697 79.0256 8.28409C79.3892 8.37121 79.7263 8.52273 80.0369 8.73864C80.3475 8.95076 80.5994 9.24811 80.7926 9.63068C80.9858 10.0095 81.0824 10.4905 81.0824 11.0739V17H80.071V15.6193H80.0085C79.8873 15.8769 79.7074 16.1269 79.4688 16.3693C79.2301 16.6117 78.9309 16.8106 78.571 16.9659C78.2112 17.1212 77.7888 17.1989 77.304 17.1989ZM77.4403 16.2727C77.9782 16.2727 78.4441 16.1534 78.8381 15.9148C79.232 15.6761 79.535 15.3598 79.7472 14.9659C79.9631 14.5682 80.071 14.1307 80.071 13.6534V12.392C79.9953 12.464 79.8684 12.5284 79.6903 12.5852C79.5161 12.642 79.3134 12.6932 79.0824 12.7386C78.8551 12.7803 78.6278 12.8163 78.4006 12.8466C78.1733 12.8769 77.9688 12.9034 77.7869 12.9261C77.2945 12.9867 76.8741 13.0814 76.5256 13.2102C76.1771 13.339 75.91 13.517 75.7244 13.7443C75.5388 13.9678 75.446 14.2557 75.446 14.608C75.446 15.1383 75.6354 15.5492 76.0142 15.8409C76.393 16.1288 76.8684 16.2727 77.4403 16.2727ZM83.7727 17V8.27273H84.7557V9.61364H84.8295C85.0038 9.17424 85.3068 8.82008 85.7386 8.55114C86.1742 8.27841 86.6667 8.14205 87.2159 8.14205C87.2992 8.14205 87.392 8.14394 87.4943 8.14773C87.5966 8.15152 87.6818 8.1553 87.75 8.15909V9.1875C87.7045 9.17992 87.625 9.16856 87.5114 9.15341C87.3977 9.13826 87.2746 9.13068 87.142 9.13068C86.6875 9.13068 86.2822 9.22727 85.9261 9.42045C85.5739 9.60985 85.2955 9.87311 85.0909 10.2102C84.8864 10.5473 84.7841 10.9318 84.7841 11.3636V17H83.7727ZM92.6193 17.1818C91.839 17.1818 91.1591 16.9867 90.5795 16.5966C90.0038 16.2064 89.5568 15.6723 89.2386 14.9943C88.9205 14.3163 88.7614 13.5436 88.7614 12.6761C88.7614 11.8011 88.9223 11.0227 89.2443 10.3409C89.5701 9.65909 90.0208 9.125 90.5966 8.73864C91.1723 8.34848 91.8409 8.15341 92.6023 8.15341C93.1856 8.15341 93.714 8.26705 94.1875 8.49432C94.661 8.7178 95.0511 9.03409 95.358 9.44318C95.6686 9.84848 95.8636 10.322 95.9432 10.8636H94.9205C94.8144 10.3712 94.5587 9.95076 94.1534 9.60227C93.7519 9.25 93.2405 9.07386 92.6193 9.07386C92.0625 9.07386 91.5701 9.22538 91.142 9.52841C90.714 9.82765 90.3788 10.2462 90.1364 10.7841C89.8977 11.3182 89.7784 11.9375 89.7784 12.642C89.7784 13.3504 89.8958 13.9773 90.1307 14.5227C90.3655 15.0644 90.6951 15.4886 91.1193 15.7955C91.5473 16.1023 92.0473 16.2557 92.6193 16.2557C93.0057 16.2557 93.358 16.1837 93.6761 16.0398C93.9981 15.892 94.267 15.6837 94.483 15.4148C94.7027 15.1458 94.8504 14.8258 94.9261 14.4545H95.9489C95.8731 14.9811 95.6856 15.4508 95.3864 15.8636C95.0909 16.2727 94.7064 16.5947 94.233 16.8295C93.7633 17.0644 93.2254 17.1818 92.6193 17.1818ZM102.827 5.36364H104.054L108.276 15.5H108.378L112.599 5.36364H113.827V17H112.827V7.60795H112.736L108.81 17H107.844L103.918 7.60795H103.827V17H102.827V5.36364ZM116.722 17V8.27273H117.739V17H116.722ZM117.239 6.77273C117.03 6.77273 116.852 6.70265 116.705 6.5625C116.557 6.41856 116.483 6.24621 116.483 6.04545C116.483 5.8447 116.557 5.67424 116.705 5.53409C116.852 5.39015 117.03 5.31818 117.239 5.31818C117.447 5.31818 117.625 5.39015 117.773 5.53409C117.92 5.67424 117.994 5.8447 117.994 6.04545C117.994 6.24621 117.92 6.41856 117.773 6.5625C117.625 6.70265 117.447 6.77273 117.239 6.77273ZM122.851 17.1989C122.324 17.1989 121.843 17.0966 121.408 16.892C120.972 16.6837 120.625 16.3845 120.368 15.9943C120.11 15.6004 119.982 15.1231 119.982 14.5625C119.982 14.1307 120.063 13.767 120.226 13.4716C120.389 13.1761 120.62 12.9337 120.919 12.7443C121.218 12.5549 121.572 12.4053 121.982 12.2955C122.391 12.1856 122.841 12.1004 123.334 12.0398C123.822 11.9792 124.235 11.9261 124.572 11.8807C124.913 11.8352 125.173 11.7633 125.351 11.6648C125.529 11.5663 125.618 11.4072 125.618 11.1875V10.983C125.618 10.3883 125.44 9.92045 125.084 9.57955C124.732 9.23485 124.224 9.0625 123.561 9.0625C122.932 9.0625 122.419 9.20076 122.021 9.47727C121.627 9.75379 121.351 10.0795 121.192 10.4545L120.232 10.108C120.429 9.63068 120.701 9.25 121.05 8.96591C121.398 8.67803 121.788 8.47159 122.22 8.34659C122.652 8.2178 123.089 8.15341 123.533 8.15341C123.866 8.15341 124.213 8.19697 124.572 8.28409C124.936 8.37121 125.273 8.52273 125.584 8.73864C125.894 8.95076 126.146 9.24811 126.339 9.63068C126.533 10.0095 126.629 10.4905 126.629 11.0739V17H125.618V15.6193H125.555C125.434 15.8769 125.254 16.1269 125.016 16.3693C124.777 16.6117 124.478 16.8106 124.118 16.9659C123.758 17.1212 123.336 17.1989 122.851 17.1989ZM122.987 16.2727C123.525 16.2727 123.991 16.1534 124.385 15.9148C124.779 15.6761 125.082 15.3598 125.294 14.9659C125.51 14.5682 125.618 14.1307 125.618 13.6534V12.392C125.542 12.464 125.415 12.5284 125.237 12.5852C125.063 12.642 124.86 12.6932 124.629 12.7386C124.402 12.7803 124.175 12.8163 123.947 12.8466C123.72 12.8769 123.516 12.9034 123.334 12.9261C122.841 12.9867 122.421 13.0814 122.072 13.2102C121.724 13.339 121.457 13.517 121.271 13.7443C121.086 13.9678 120.993 14.2557 120.993 14.608C120.993 15.1383 121.182 15.5492 121.561 15.8409C121.94 16.1288 122.415 16.2727 122.987 16.2727ZM130.331 11.5455V17H129.32V8.27273H130.303V9.64205H130.393C130.598 9.19508 130.916 8.83712 131.348 8.56818C131.784 8.29545 132.321 8.15909 132.962 8.15909C133.549 8.15909 134.064 8.2822 134.507 8.52841C134.954 8.77083 135.301 9.12879 135.547 9.60227C135.797 10.0758 135.922 10.6572 135.922 11.3466V17H134.911V11.4091C134.911 10.6932 134.71 10.1269 134.308 9.71023C133.911 9.29356 133.376 9.08523 132.706 9.08523C132.248 9.08523 131.84 9.18371 131.484 9.38068C131.128 9.57765 130.846 9.86174 130.638 10.233C130.433 10.6004 130.331 11.0379 130.331 11.5455ZM141.915 20.4545C141.32 20.4545 140.799 20.3769 140.352 20.2216C139.905 20.0701 139.528 19.8617 139.222 19.5966C138.915 19.3314 138.676 19.0341 138.506 18.7045L139.335 18.1591C139.46 18.3788 139.627 18.5947 139.835 18.8068C140.047 19.0189 140.322 19.1951 140.659 19.3352C141 19.4754 141.419 19.5455 141.915 19.5455C142.688 19.5455 143.311 19.3523 143.784 18.9659C144.261 18.5795 144.5 17.9792 144.5 17.1648V15.1989H144.409C144.292 15.464 144.123 15.7292 143.903 15.9943C143.684 16.2557 143.396 16.4735 143.04 16.6477C142.688 16.822 142.25 16.9091 141.727 16.9091C141.03 16.9091 140.411 16.7367 139.869 16.392C139.331 16.0473 138.907 15.5549 138.597 14.9148C138.29 14.2708 138.136 13.5038 138.136 12.6136C138.136 11.7311 138.286 10.9545 138.585 10.2841C138.888 9.61364 139.311 9.09091 139.852 8.71591C140.394 8.34091 141.025 8.15341 141.744 8.15341C142.278 8.15341 142.722 8.24811 143.074 8.4375C143.426 8.62311 143.708 8.85417 143.92 9.13068C144.136 9.4072 144.305 9.67614 144.426 9.9375H144.528V8.27273H145.517V17.2273C145.517 17.9659 145.36 18.5739 145.045 19.0511C144.731 19.5284 144.303 19.8807 143.761 20.108C143.22 20.339 142.604 20.4545 141.915 20.4545ZM141.847 15.983C142.407 15.983 142.886 15.8485 143.284 15.5795C143.682 15.3068 143.987 14.9167 144.199 14.4091C144.411 13.9015 144.517 13.2973 144.517 12.5966C144.517 11.9148 144.413 11.3106 144.205 10.7841C143.996 10.2538 143.693 9.83712 143.295 9.53409C142.902 9.22727 142.419 9.07386 141.847 9.07386C141.263 9.07386 140.771 9.23106 140.369 9.54545C139.968 9.85985 139.665 10.2841 139.46 10.8182C139.256 11.3485 139.153 11.9413 139.153 12.5966C139.153 13.2633 139.258 13.8523 139.466 14.3636C139.674 14.8712 139.979 15.2689 140.381 15.5568C140.782 15.8409 141.271 15.983 141.847 15.983ZM151.587 17.1818C150.833 17.1818 150.166 16.9905 149.587 16.608C149.011 16.2254 148.56 15.697 148.234 15.0227C147.909 14.3447 147.746 13.5625 147.746 12.6761C147.746 11.7822 147.909 10.9962 148.234 10.3182C148.56 9.63636 149.011 9.10606 149.587 8.72727C150.166 8.3447 150.833 8.15341 151.587 8.15341C152.34 8.15341 153.005 8.3447 153.581 8.72727C154.157 9.10985 154.607 9.64015 154.933 10.3182C155.263 10.9962 155.428 11.7822 155.428 12.6761C155.428 13.5625 155.265 14.3447 154.939 15.0227C154.613 15.697 154.161 16.2254 153.581 16.608C153.005 16.9905 152.34 17.1818 151.587 17.1818ZM151.587 16.2557C152.193 16.2557 152.706 16.0928 153.126 15.767C153.547 15.4413 153.865 15.0076 154.081 14.4659C154.301 13.9242 154.411 13.3277 154.411 12.6761C154.411 12.0246 154.301 11.4261 154.081 10.8807C153.865 10.3352 153.547 9.89773 153.126 9.56818C152.706 9.23864 152.193 9.07386 151.587 9.07386C150.984 9.07386 150.471 9.23864 150.047 9.56818C149.626 9.89773 149.306 10.3352 149.087 10.8807C148.871 11.4261 148.763 12.0246 148.763 12.6761C148.763 13.3277 148.871 13.9242 149.087 14.4659C149.306 15.0076 149.626 15.4413 150.047 15.767C150.467 16.0928 150.981 16.2557 151.587 16.2557ZM159.33 15.4091L159.227 16.017C159.163 16.4261 159.072 16.8769 158.955 17.3693C158.837 17.8617 158.716 18.3295 158.591 18.7727C158.466 19.2159 158.358 19.572 158.267 19.8409H157.489C157.538 19.5833 157.6 19.2557 157.676 18.858C157.756 18.4602 157.837 18.0189 157.92 17.5341C158.004 17.053 158.08 16.5568 158.148 16.0455L158.227 15.4091H159.33ZM166.467 17V16.2216L170.268 11.9489C170.765 11.3883 171.164 10.9091 171.467 10.5114C171.77 10.1136 171.99 9.74621 172.126 9.40909C172.267 9.07197 172.337 8.72159 172.337 8.35795C172.337 7.91477 172.232 7.52841 172.024 7.19886C171.82 6.86553 171.537 6.60606 171.178 6.42045C170.818 6.23485 170.412 6.14205 169.962 6.14205C169.484 6.14205 169.066 6.24432 168.706 6.44886C168.35 6.65341 168.073 6.93371 167.876 7.28977C167.679 7.64583 167.581 8.05492 167.581 8.51705H166.564C166.564 7.87311 166.712 7.30303 167.007 6.80682C167.306 6.30682 167.714 5.91477 168.229 5.63068C168.748 5.34659 169.335 5.20455 169.99 5.20455C170.638 5.20455 171.214 5.3447 171.717 5.625C172.221 5.90151 172.617 6.27841 172.905 6.75568C173.193 7.23295 173.337 7.76705 173.337 8.35795C173.337 8.78598 173.261 9.20076 173.109 9.60227C172.962 10.0038 172.706 10.4508 172.342 10.9432C171.979 11.4356 171.475 12.0379 170.831 12.75L167.945 15.9716V16.0455H173.7V17H166.467ZM179.847 17.1591C179.028 17.1591 178.33 16.9242 177.75 16.4545C177.174 15.9811 176.731 15.2973 176.42 14.4034C176.114 13.5095 175.96 12.4356 175.96 11.1818C175.96 9.93182 176.114 8.86174 176.42 7.97159C176.731 7.07765 177.176 6.39394 177.756 5.92045C178.339 5.44318 179.036 5.20455 179.847 5.20455C180.657 5.20455 181.352 5.44318 181.932 5.92045C182.515 6.39394 182.96 7.07765 183.267 7.97159C183.578 8.86174 183.733 9.93182 183.733 11.1818C183.733 12.4356 183.578 13.5095 183.267 14.4034C182.96 15.2973 182.517 15.9811 181.938 16.4545C181.362 16.9242 180.665 17.1591 179.847 17.1591ZM179.847 16.2045C180.744 16.2045 181.445 15.767 181.949 14.892C182.453 14.0133 182.705 12.7765 182.705 11.1818C182.705 10.1212 182.589 9.21591 182.358 8.46591C182.131 7.71212 181.803 7.13636 181.375 6.73864C180.951 6.34091 180.441 6.14205 179.847 6.14205C178.956 6.14205 178.258 6.58523 177.75 7.47159C177.242 8.35417 176.989 9.59091 176.989 11.1818C176.989 12.2424 177.102 13.1477 177.33 13.8977C177.561 14.6477 177.888 15.2197 178.312 15.6136C178.741 16.0076 179.252 16.2045 179.847 16.2045ZM186.045 17V16.2216L189.847 11.9489C190.343 11.3883 190.742 10.9091 191.045 10.5114C191.348 10.1136 191.568 9.74621 191.705 9.40909C191.845 9.07197 191.915 8.72159 191.915 8.35795C191.915 7.91477 191.811 7.52841 191.602 7.19886C191.398 6.86553 191.116 6.60606 190.756 6.42045C190.396 6.23485 189.991 6.14205 189.54 6.14205C189.063 6.14205 188.644 6.24432 188.284 6.44886C187.928 6.65341 187.652 6.93371 187.455 7.28977C187.258 7.64583 187.159 8.05492 187.159 8.51705H186.142C186.142 7.87311 186.29 7.30303 186.585 6.80682C186.884 6.30682 187.292 5.91477 187.807 5.63068C188.326 5.34659 188.913 5.20455 189.568 5.20455C190.216 5.20455 190.792 5.3447 191.295 5.625C191.799 5.90151 192.195 6.27841 192.483 6.75568C192.771 7.23295 192.915 7.76705 192.915 8.35795C192.915 8.78598 192.839 9.20076 192.688 9.60227C192.54 10.0038 192.284 10.4508 191.92 10.9432C191.557 11.4356 191.053 12.0379 190.409 12.75L187.523 15.9716V16.0455H193.278V17H186.045ZM195.283 14.5V13.6364L200.47 5.36364H201.107V6.8125H200.635L196.47 13.4716V13.5455H203.271V14.5H195.283ZM200.714 17V14.2273V13.8295V5.36364H201.726V17H200.714ZM208.315 11.1818C208.315 10.5606 208.467 9.99432 208.77 9.48295C209.073 8.97159 209.48 8.56439 209.991 8.26136C210.503 7.95833 211.069 7.80682 211.69 7.80682C212.198 7.80682 212.666 7.91098 213.094 8.11932C213.522 8.32765 213.88 8.61364 214.168 8.97727C214.459 9.33712 214.654 9.74811 214.753 10.2102H213.696C213.582 9.79735 213.34 9.46023 212.969 9.19886C212.598 8.9375 212.171 8.80682 211.69 8.80682C211.255 8.80682 210.857 8.91477 210.497 9.13068C210.137 9.3428 209.849 9.62879 209.634 9.98864C209.421 10.3447 209.315 10.7424 209.315 11.1818C209.315 11.6174 209.421 12.0152 209.634 12.375C209.849 12.7348 210.137 13.0227 210.497 13.2386C210.857 13.4508 211.255 13.5568 211.69 13.5568C212.171 13.5568 212.584 13.4261 212.929 13.1648C213.274 12.9034 213.505 12.5663 213.622 12.1534H214.673C214.579 12.6155 214.393 13.0284 214.116 13.392C213.84 13.7519 213.493 14.036 213.077 14.2443C212.66 14.4527 212.198 14.5568 211.69 14.5568C211.069 14.5568 210.503 14.4053 209.991 14.1023C209.48 13.7992 209.073 13.392 208.77 12.8807C208.467 12.3693 208.315 11.803 208.315 11.1818ZM211.599 17.1818C210.774 17.1818 209.997 17.0265 209.27 16.7159C208.546 16.4053 207.908 15.9754 207.355 15.4261C206.806 14.8731 206.374 14.2348 206.06 13.5114C205.749 12.7879 205.596 12.0114 205.599 11.1818C205.603 10.3523 205.76 9.57576 206.071 8.85227C206.385 8.12879 206.817 7.49242 207.366 6.94318C207.916 6.39015 208.552 5.95833 209.276 5.64773C209.999 5.33712 210.774 5.18182 211.599 5.18182C212.429 5.18182 213.205 5.33712 213.929 5.64773C214.656 5.95833 215.293 6.39015 215.838 6.94318C216.387 7.49242 216.817 8.12879 217.128 8.85227C217.438 9.57576 217.596 10.3523 217.599 11.1818C217.603 12.0114 217.45 12.7879 217.139 13.5114C216.829 14.2348 216.399 14.8731 215.849 15.4261C215.3 15.9754 214.662 16.4053 213.935 16.7159C213.207 17.0265 212.429 17.1818 211.599 17.1818ZM211.599 16.1818C212.293 16.1818 212.942 16.053 213.548 15.7955C214.154 15.5341 214.685 15.1761 215.139 14.7216C215.598 14.2633 215.955 13.7311 216.213 13.125C216.474 12.5189 216.603 11.8731 216.599 11.1875C216.596 10.4943 216.463 9.8447 216.202 9.23864C215.944 8.63258 215.586 8.10227 215.128 7.64773C214.673 7.18939 214.145 6.83144 213.543 6.57386C212.94 6.3125 212.293 6.18182 211.599 6.18182C210.91 6.18182 210.264 6.3125 209.662 6.57386C209.06 6.83144 208.529 7.18939 208.071 7.64773C207.616 8.10606 207.259 8.63826 206.997 9.24432C206.736 9.84659 206.603 10.4943 206.599 11.1875C206.596 11.8731 206.723 12.5189 206.98 13.125C207.241 13.7273 207.601 14.2576 208.06 14.7159C208.518 15.1705 209.05 15.5284 209.656 15.7898C210.262 16.0511 210.91 16.1818 211.599 16.1818Z" fill="black"/>
</svg>
